
<svg width="40" height="40" viewBox="0 0 40 40" xmlns="http://www.w3.org/2000/svg">
  <path d="M20 5C22.7614 5 25 7.23858 25 10V30C25 32.7614 22.7614 35 20 35C17.2386 35 15 32.7614 15 30V10C15 7.23858 17.2386 5 20 5Z" fill="#FF91A4"/>
  <path d="M25 10C25 12.7614 22.7614 15 20 15C17.2386 15 15 12.7614 15 10C15 7.23858 17.2386 5 20 5C22.7614 5 25 7.23858 25 10Z" fill="#FFFFFF"/>
  <path d="M25 30C25 32.7614 22.7614 35 20 35C17.2386 35 15 32.7614 15 30C15 27.2386 17.2386 25 20 25C22.7614 25 25 27.2386 25 30Z" fill="#FFFFFF"/>
  <path d="M15 12V28C15 28 5 26 5 20C5 14 15 12 15 12Z" fill="#FF6B88"/>
  <path d="M25 12V28C25 28 35 26 35 20C35 14 25 12 25 12Z" fill="#FF6B88"/>
</svg>
